<svg width="173" height="44" viewBox="0 0 173 44" fill="none" xmlns="http://www.w3.org/2000/svg">
<path opacity="0.3" d="M24.1715 4.1304L22.472 2.01591C21.8495 1.23093 21.0242 0.643964 20.094 0.311585C19.1568 -0.0207937 18.1566 -0.0773688 17.1914 0.148932C16.2332 0.36816 15.352 0.863192 14.6456 1.57038C13.9462 2.28464 13.4496 3.1757 13.2118 4.15869L11.3024 12.1146L24.1645 4.1304H24.1715Z" fill="#E6ECF9"/>
<path opacity="0.3" d="M5.65903 35.6214C5.44221 36.5266 5.44921 37.4672 5.68701 38.3582C5.9318 39.2564 6.38642 40.0696 7.02288 40.7344C7.65934 41.3921 8.44268 41.88 9.30994 42.1417C10.1842 42.4034 11.1004 42.4316 11.9817 42.2266L22.5358 39.7797L7.06484 29.7871L5.65903 35.6214Z" fill="#E6ECF9"/>
<path opacity="0.3" d="M43.6426 29.5607C43.4818 28.6484 43.0971 27.7927 42.5236 27.0784L36.3338 19.3418L34.6203 36.9791H34.6273L39.5861 35.8334C40.4673 35.6283 41.2856 35.1899 41.9571 34.5746C42.6285 33.9523 43.1391 33.1673 43.4328 32.2904C43.7266 31.4135 43.7965 30.48 43.6426 29.5607Z" fill="#E6ECF9"/>
<path d="M7.06319 29.7873L22.5341 39.7799L7.06319 29.7803V29.7873Z" fill="#E6ECF9"/>
<path opacity="0.6" d="M2.56683 17.546C1.79049 18.0268 1.14703 18.7057 0.699409 19.5049C0.251787 20.3111 0.00699409 21.2233 0 22.1498C0 23.0832 0.216817 23.9955 0.65045 24.8088C1.08408 25.6221 1.71355 26.308 2.4829 26.8031L7.05704 29.7732L11.3024 12.1147L2.56683 17.546Z" fill="#E6ECF9"/>
<path opacity="0.6" d="M27.5272 8.33827L28.5274 9.59L36.3258 19.3351L37.6337 5.95505C37.7246 4.95084 37.5427 3.93956 37.1091 3.03436C36.6755 2.12916 36.004 1.37246 35.1718 0.835001C34.3395 0.297537 33.3743 0.00759006 32.3881 0.000518176C31.4089 -0.0136256 30.4368 0.262178 29.5975 0.778426L24.1701 4.1305L27.5342 8.33827H27.5272Z" fill="#E6ECF9"/>
<path opacity="0.6" d="M22.5352 39.78L26.382 42.2622C27.1443 42.7572 28.0256 43.0472 28.9278 43.0967C29.8301 43.1462 30.7323 42.9552 31.5436 42.5521C32.3619 42.142 33.0613 41.5338 33.5789 40.77C34.0965 40.0063 34.4182 39.1293 34.5091 38.2029L34.628 36.9795H34.621L22.5352 39.78Z" fill="#E6ECF9"/>
<path d="M36.3339 19.342L36.3269 19.3349L28.5285 9.58987L27.5284 8.33814L24.1642 4.13037L11.3021 12.1145L7.05666 29.773V29.7801H7.06366L22.5346 39.7798L34.6204 36.9793L36.3339 19.342Z" fill="#E6ECF9"/>
<path d="M76.9865 31.866L74.5036 19.5255L69.9295 31.9579C69.8386 32.262 69.6497 32.5236 69.3979 32.7075C69.1462 32.8914 68.8384 32.9975 68.5307 32.9904C68.2229 32.9904 67.9222 32.8843 67.6704 32.6934C67.4186 32.5095 67.2298 32.2478 67.1319 31.9508L63.0613 19.964L60.9001 31.8589C60.8652 32.0498 60.7952 32.2266 60.6973 32.3893C60.5924 32.5519 60.4595 32.6934 60.3056 32.8065C60.1518 32.9197 59.9769 32.9975 59.7881 33.0399C59.5992 33.0823 59.4104 33.0894 59.2215 33.054C59.0327 33.0187 58.8579 32.948 58.697 32.849C58.5361 32.7429 58.3962 32.6085 58.2843 32.4529C58.1724 32.2973 58.0955 32.1206 58.0535 31.9296C58.0116 31.7387 58.0046 31.5477 58.0396 31.3568L60.9841 13.6417C61.04 13.3164 61.2079 13.0123 61.4597 12.7931C61.7045 12.5739 62.0192 12.4395 62.3479 12.4183C62.6766 12.3971 63.0054 12.489 63.2711 12.6799C63.5439 12.8709 63.7397 13.1467 63.8376 13.4649L68.5587 26.8661L73.4405 13.4296C73.5384 13.1184 73.7413 12.8497 74.007 12.6658C74.2728 12.4819 74.6016 12.39 74.9233 12.4112C75.245 12.4324 75.5527 12.5597 75.7975 12.7789C76.0423 12.9982 76.2102 13.2881 76.2661 13.6134L79.8191 31.2861C79.8891 31.6679 79.8191 32.064 79.6023 32.3893C79.3925 32.7146 79.0568 32.9409 78.6791 33.0258H78.3854C78.0566 33.0187 77.7349 32.8985 77.4761 32.6863C77.2173 32.4741 77.0425 32.1771 76.9656 31.8518L76.9865 31.866Z" fill="#E6ECF9"/>
<path d="M92.7788 19.8512V34.384C92.7578 35.7418 92.2822 37.0571 91.4359 38.1108C90.5896 39.1645 89.4146 39.9071 88.1067 40.2112C86.7988 40.5153 85.421 40.3668 84.204 39.7939C82.9871 39.2141 81.9939 38.2452 81.3854 37.0288C81.3015 36.8591 81.2525 36.6682 81.2455 36.4772C81.2316 36.2863 81.2595 36.0953 81.3225 35.9115C81.3854 35.7276 81.4833 35.565 81.6092 35.4235C81.7351 35.2821 81.889 35.1619 82.0569 35.077C82.3996 34.9143 82.7912 34.8931 83.1479 35.0204C83.5046 35.1477 83.7914 35.4164 83.9592 35.7559C84.225 36.2863 84.6237 36.7318 85.1273 37.043C85.6238 37.3541 86.1974 37.5239 86.7849 37.5239C87.1975 37.5239 87.6032 37.4461 87.9878 37.2905C88.3725 37.1349 88.7152 36.9015 89.009 36.6116C89.3027 36.3216 89.5335 35.9681 89.6944 35.5862C89.8553 35.2043 89.9392 34.7941 89.9392 34.3769V32.2553C89.0509 32.7857 88.0438 33.0686 87.0157 33.0827C85.9875 33.0969 84.9734 32.8281 84.0711 32.319C83.1759 31.8098 82.4275 31.0672 81.896 30.1691C81.3714 29.271 81.0847 28.2526 81.0777 27.2131V19.8512C81.0637 19.6532 81.0917 19.4552 81.1546 19.2643C81.2176 19.0733 81.3225 18.9036 81.4554 18.7551C81.5882 18.6066 81.7491 18.4934 81.931 18.4156C82.1128 18.3378 82.3086 18.2954 82.5045 18.2954C82.7003 18.2954 82.8961 18.3378 83.078 18.4156C83.2598 18.4934 83.4207 18.6136 83.5536 18.7551C83.6865 18.9036 83.7914 19.0733 83.8543 19.2643C83.9173 19.4552 83.9453 19.6532 83.9313 19.8512V27.1565C83.9313 27.9627 84.246 28.7335 84.8125 29.3063C85.3721 29.8792 86.1414 30.1974 86.9387 30.1974C87.7361 30.1974 88.4984 29.8792 89.0649 29.3063C89.6314 28.7335 89.9462 27.9627 89.9462 27.1565V19.8512C89.9742 19.4835 90.135 19.137 90.4078 18.8894C90.6736 18.6349 91.0303 18.5005 91.394 18.5005C91.7577 18.5005 92.1144 18.6419 92.3801 18.8894C92.6459 19.144 92.8138 19.4835 92.8417 19.8512H92.8068H92.7788Z" fill="#E6ECF9"/>
<path d="M108.655 27.1639C108.564 28.6914 107.92 30.127 106.85 31.202C106.235 31.7889 105.514 32.2486 104.724 32.5527C103.934 32.8568 103.087 32.9982 102.248 32.9699C102.192 32.9841 102.136 32.9841 102.08 32.9699C100.381 32.9911 98.7161 32.489 97.3033 31.5273C96.5269 30.9686 95.8765 30.2402 95.4079 29.4057C95.254 29.1582 95.1771 28.8753 95.1701 28.5854C95.1701 28.1964 95.3239 27.8216 95.5967 27.5458C95.8695 27.27 96.2402 27.1144 96.6248 27.1144C96.9116 27.1144 97.1914 27.1993 97.4222 27.3619C97.653 27.5246 97.8348 27.758 97.9327 28.0267C98.2265 28.4722 98.5902 28.8612 99.0168 29.1794C99.947 29.7734 101.031 30.0775 102.136 30.0563C105.605 30.1129 105.78 27.1993 105.78 27.171C105.738 26.7679 105.619 26.386 105.423 26.0324C105.228 25.6788 104.962 25.3747 104.64 25.1414C103.752 24.5756 102.724 24.2715 101.668 24.2644C100.038 24.0523 98.2545 23.8472 96.7857 22.3126C96.0933 21.6125 95.6107 20.7356 95.3729 19.7738C95.1421 18.812 95.1771 17.8078 95.4708 16.8672C95.7786 15.8277 96.3661 14.9013 97.1634 14.1729C97.9607 13.4445 98.9399 12.9565 99.989 12.7514C100.563 12.61 101.15 12.5534 101.738 12.5675C103.542 12.5322 105.312 13.1121 106.752 14.2153C107.494 14.781 108.095 15.5165 108.501 16.3651C108.62 16.5702 108.676 16.8107 108.669 17.0511C108.669 17.3835 108.55 17.7088 108.34 17.9705C108.13 18.2321 107.836 18.4089 107.515 18.4726C107.193 18.5362 106.85 18.4867 106.556 18.3311C106.263 18.1755 106.032 17.921 105.906 17.6098C105.731 17.1926 105.451 16.8248 105.095 16.549C104.122 15.8347 102.941 15.4599 101.745 15.4882C101.374 15.4529 100.996 15.4882 100.639 15.5802C100.094 15.6933 99.5833 15.9479 99.1707 16.3298C98.758 16.7046 98.4503 17.1926 98.2824 17.73C98.1426 18.1685 98.1286 18.6423 98.2405 19.0878C98.3524 19.5333 98.5902 19.9435 98.9189 20.2617C99.6533 21.0043 100.549 21.174 102.101 21.3579C103.675 21.4145 105.207 21.9236 106.5 22.8288C107.151 23.3522 107.682 24.0098 108.053 24.7595C108.424 25.5091 108.634 26.3294 108.662 27.171L108.655 27.1639Z" fill="#E6ECF9"/>
<path d="M125.21 25.805V31.5615C125.21 31.7596 125.182 31.9505 125.112 32.1344C125.042 32.3182 124.937 32.4809 124.797 32.6223C124.664 32.7638 124.496 32.8698 124.315 32.9406C124.133 33.0113 123.944 33.0466 123.748 33.0396C123.377 33.0042 123.035 32.8415 122.776 32.5657C122.517 32.297 122.37 31.9363 122.349 31.5615C121.139 32.5728 119.608 33.0961 118.034 33.0325C117.076 33.0608 116.118 32.8981 115.222 32.5445C114.327 32.1909 113.516 31.6605 112.823 30.9887C112.138 30.3098 111.592 29.5036 111.215 28.6055C110.844 27.7144 110.655 26.7527 110.655 25.7838C110.655 24.8008 110.837 23.832 111.201 22.9268C111.571 22.0216 112.11 21.1942 112.795 20.5011C113.481 19.8081 114.299 19.2565 115.194 18.8887C116.09 18.5139 117.055 18.33 118.02 18.3371C118.978 18.3371 119.929 18.5281 120.818 18.9029C121.706 19.2777 122.503 19.8364 123.175 20.5294C123.846 21.2295 124.364 22.0499 124.713 22.9621C125.056 23.8673 125.224 24.8362 125.189 25.805H125.21ZM122.356 25.805C122.37 25.2181 122.272 24.6382 122.063 24.0866C121.853 23.542 121.538 23.0399 121.139 22.6156C120.741 22.1913 120.258 21.8518 119.727 21.6114C119.195 21.378 118.621 21.2437 118.041 21.2366C116.852 21.2507 115.712 21.7387 114.866 22.5944C114.019 23.4501 113.544 24.5957 113.523 25.805C113.537 26.392 113.663 26.9719 113.893 27.5093C114.124 28.0468 114.46 28.5348 114.88 28.9379C115.299 29.341 115.796 29.6592 116.334 29.8714C116.873 30.0835 117.453 30.1825 118.034 30.1684C118.6 30.1825 119.167 30.0764 119.699 29.8572C120.23 29.6451 120.706 29.3197 121.111 28.9167C121.517 28.5065 121.832 28.0256 122.042 27.4881C122.251 26.9507 122.356 26.3849 122.349 25.805H122.356Z" fill="#E6ECF9"/>
<path d="M135.73 19.7654C135.73 20.1544 135.576 20.5292 135.303 20.805C135.031 21.0808 134.66 21.2364 134.275 21.2364C133.695 21.2364 133.114 21.3495 132.576 21.5758C132.037 21.8021 131.548 22.1345 131.142 22.5517C130.729 22.969 130.408 23.464 130.184 24.0086C129.96 24.5531 129.848 25.133 129.848 25.727V31.6462C129.862 31.8442 129.834 32.0493 129.771 32.2402C129.708 32.4312 129.603 32.608 129.463 32.7494C129.331 32.8979 129.163 33.0181 128.981 33.0959C128.799 33.1737 128.603 33.2161 128.4 33.2161C128.197 33.2161 128.002 33.1737 127.82 33.0959C127.638 33.0181 127.47 32.8979 127.337 32.7494C127.204 32.6009 127.099 32.4241 127.029 32.2402C126.967 32.0493 126.939 31.8513 126.953 31.6462V25.727C126.953 23.761 127.722 21.8799 129.1 20.4938C130.471 19.1077 132.338 18.3228 134.275 18.3228C134.464 18.3228 134.653 18.3581 134.828 18.4288C135.003 18.4996 135.164 18.6056 135.296 18.74C135.429 18.8744 135.541 19.037 135.611 19.2138C135.681 19.3906 135.723 19.5815 135.723 19.7725L135.73 19.7654Z" fill="#E6ECF9"/>
<path d="M156.685 24.3629C156.699 24.4124 156.699 24.4619 156.685 24.5114V31.6682C156.685 32.0571 156.524 32.4319 156.251 32.7077C155.978 32.9835 155.608 33.1391 155.216 33.1391C155.027 33.1391 154.838 33.0967 154.663 33.0189C154.489 32.9411 154.335 32.835 154.202 32.7007C154.069 32.5663 153.964 32.4037 153.894 32.2269C153.824 32.0501 153.789 31.8591 153.789 31.6682V24.2639C153.747 23.4931 153.418 22.7647 152.866 22.2343C152.313 21.7039 151.579 21.4069 150.817 21.4069C150.054 21.4069 149.32 21.7039 148.767 22.2343C148.215 22.7647 147.886 23.4931 147.844 24.2639V31.6682C147.844 31.8591 147.816 32.0501 147.746 32.2269C147.676 32.4037 147.571 32.5663 147.439 32.7007C147.306 32.835 147.145 32.9482 146.977 33.0189C146.802 33.0967 146.613 33.1321 146.424 33.1321C146.04 33.1321 145.669 32.9765 145.396 32.7007C145.123 32.4249 144.97 32.0501 144.97 31.6611V24.2568C144.928 23.4931 144.599 22.7717 144.053 22.2414C143.508 21.711 142.773 21.421 142.011 21.421C141.249 21.421 140.521 21.718 139.969 22.2414C139.416 22.7647 139.088 23.4931 139.053 24.2568V31.6611C139.067 31.8591 139.039 32.0642 138.976 32.2551C138.913 32.4461 138.808 32.6229 138.668 32.7643C138.535 32.9128 138.367 33.0331 138.185 33.1108C138.004 33.1886 137.808 33.2311 137.605 33.2311C137.402 33.2311 137.206 33.1886 137.024 33.1108C136.842 33.0331 136.675 32.9128 136.542 32.7643C136.409 32.6158 136.304 32.439 136.234 32.2551C136.171 32.0642 136.143 31.8662 136.157 31.6611V24.2568C136.157 22.6869 136.787 21.1876 137.885 20.0844C138.983 18.9812 140.472 18.3589 142.018 18.3589C142.85 18.3589 143.683 18.5357 144.438 18.8893C145.2 19.2429 145.872 19.752 146.417 20.3956C146.963 19.752 147.634 19.2429 148.397 18.8893C149.159 18.5357 149.984 18.3589 150.817 18.366C152.369 18.366 153.852 18.9883 154.95 20.0915C156.048 21.1947 156.671 22.701 156.678 24.2639C156.713 24.3063 156.713 24.3276 156.678 24.3629H156.685Z" fill="#E6ECF9"/>
<path d="M173.002 25.805V31.5615C173.002 31.7596 172.974 31.9505 172.904 32.1344C172.834 32.3182 172.729 32.4809 172.589 32.6223C172.45 32.7638 172.289 32.8698 172.107 32.9406C171.925 33.0113 171.736 33.0466 171.54 33.0396C171.17 33.0042 170.827 32.8415 170.568 32.5657C170.309 32.297 170.163 31.9363 170.142 31.5615C168.932 32.5728 167.4 33.0961 165.826 33.0325C164.868 33.0608 163.91 32.8981 163.015 32.5445C162.119 32.1909 161.301 31.6605 160.616 30.9887C159.93 30.3098 159.385 29.5036 159.007 28.6055C158.636 27.7144 158.447 26.7527 158.447 25.7838C158.447 24.8008 158.629 23.832 158.993 22.9268C159.364 22.0216 159.902 21.1942 160.588 20.5011C161.273 19.8081 162.091 19.2565 162.987 18.8887C163.882 18.5139 164.847 18.33 165.819 18.3371C166.777 18.3371 167.729 18.5281 168.617 18.9029C169.505 19.2777 170.302 19.8364 170.974 20.5294C171.645 21.2295 172.163 22.0499 172.513 22.9621C172.855 23.8673 173.023 24.8362 172.988 25.805H173.002ZM170.149 25.805C170.163 25.2181 170.065 24.6382 169.855 24.0866C169.645 23.542 169.33 23.0399 168.932 22.6156C168.533 22.1913 168.05 21.8518 167.519 21.6114C166.987 21.378 166.414 21.2437 165.833 21.2366C164.644 21.2507 163.504 21.7387 162.658 22.5944C161.812 23.4501 161.336 24.5957 161.315 25.805C161.329 26.392 161.455 26.9719 161.686 27.5093C161.917 28.0468 162.259 28.5348 162.672 28.9379C163.092 29.341 163.588 29.6592 164.127 29.8714C164.665 30.0835 165.246 30.1825 165.826 30.1684C166.393 30.1825 166.959 30.0764 167.491 29.8572C168.022 29.6451 168.498 29.3197 168.904 28.9167C169.309 28.5065 169.624 28.0256 169.834 27.4881C170.044 26.9507 170.149 26.3849 170.142 25.805H170.149Z" fill="#E6ECF9"/>
</svg>
