<svg width="173" height="44" viewBox="0 0 173 44" fill="none" xmlns="http://www.w3.org/2000/svg">
<path opacity="0.3" d="M24.1719 4.76192L22.4723 2.6697C21.8498 1.89299 21.0245 1.31221 20.0943 0.983332C19.1571 0.654455 18.1569 0.598476 17.1918 0.822392C16.2336 1.03931 15.3523 1.52913 14.6459 2.22887C13.9465 2.9356 13.4499 3.81727 13.2121 4.78991L11.3027 12.662L24.1649 4.76192H24.1719Z" fill="#2B50B0"/>
<path opacity="0.3" d="M5.6587 35.9209C5.44188 36.8165 5.44888 37.7472 5.68667 38.6289C5.93147 39.5175 6.38608 40.3222 7.02255 40.98C7.65901 41.6307 8.44235 42.1136 9.30961 42.3725C10.1839 42.6314 11.1001 42.6593 11.9814 42.4564L22.5354 40.0353L7.06451 30.148L5.6587 35.9209Z" fill="#2B50B0"/>
<path opacity="0.3" d="M43.6435 29.9243C43.4826 29.0216 43.0979 28.1749 42.5244 27.4682L36.3346 19.8131L34.6211 37.2645H34.6281L39.5869 36.131C40.4682 35.928 41.2865 35.4942 41.9579 34.8854C42.6293 34.2697 43.1399 33.4929 43.4336 32.6253C43.7274 31.7576 43.7973 30.8339 43.6435 29.9243Z" fill="#2B50B0"/>
<path d="M7.0625 30.1487L22.5334 40.036L7.0625 30.1417V30.1487Z" fill="#2B50B0"/>
<path opacity="0.6" d="M2.56683 18.0359C1.79049 18.5117 1.14703 19.1835 0.699409 19.9742C0.251787 20.7719 0.00699409 21.6745 0 22.5912C0 23.5148 0.216817 24.4175 0.65045 25.2222C1.08408 26.0269 1.71355 26.7056 2.4829 27.1954L7.05704 30.1343L11.3024 12.6619L2.56683 18.0359Z" fill="#2B50B0"/>
<path opacity="0.6" d="M27.5272 8.9251L28.5274 10.1636L36.3258 19.806L37.6337 6.56699C37.7246 5.57336 37.5427 4.57273 37.1091 3.67707C36.6755 2.78141 36.004 2.03269 35.1718 1.50089C34.3395 0.969085 33.3743 0.682193 32.3881 0.675195C31.4089 0.661201 30.4368 0.934098 29.5975 1.44491L24.1701 4.76166L27.5342 8.9251H27.5272Z" fill="#2B50B0"/>
<path opacity="0.6" d="M22.5352 40.0355L26.382 42.4916C27.1443 42.9814 28.0256 43.2683 28.9278 43.3173C29.8301 43.3663 30.7323 43.1773 31.5436 42.7785C32.3619 42.3726 33.0613 41.7709 33.5789 41.0152C34.0965 40.2594 34.4182 39.3918 34.5091 38.4751L34.628 37.2646H34.621L22.5352 40.0355Z" fill="#2B50B0"/>
<path d="M36.3339 19.8131L36.3269 19.8061L28.5285 10.1637L27.5284 8.92516L24.1642 4.76172L11.3021 12.6618L7.05666 30.1342V30.1412H7.06366L22.5346 40.0355L34.6204 37.2645L36.3339 19.8131Z" fill="#2B50B0"/>
<path d="M76.987 32.205L74.504 19.9946L69.9299 32.296C69.839 32.5968 69.6502 32.8557 69.3984 33.0377C69.1466 33.2196 68.8388 33.3246 68.5311 33.3176C68.2234 33.3176 67.9226 33.2126 67.6708 33.0237C67.419 32.8418 67.2302 32.5828 67.1323 32.289L63.0617 20.4284L60.9005 32.198C60.8656 32.3869 60.7956 32.5619 60.6977 32.7228C60.5928 32.8837 60.4599 33.0237 60.3061 33.1356C60.1522 33.2476 59.9773 33.3246 59.7885 33.3666C59.5997 33.4085 59.4108 33.4155 59.222 33.3806C59.0331 33.3456 58.8583 33.2756 58.6974 33.1776C58.5365 33.0727 58.3967 32.9397 58.2848 32.7858C58.1729 32.6318 58.0959 32.4569 58.054 32.268C58.012 32.079 58.005 31.8901 58.04 31.7012L60.9845 14.1728C61.0404 13.8509 61.2083 13.55 61.4601 13.3331C61.7049 13.1161 62.0196 12.9832 62.3483 12.9622C62.677 12.9412 63.0058 13.0322 63.2715 13.2211C63.5443 13.41 63.7401 13.6829 63.8381 13.9978L68.5591 27.2578L73.4409 13.9628C73.5389 13.6549 73.7417 13.389 74.0075 13.2071C74.2732 13.0252 74.602 12.9342 74.9237 12.9552C75.2454 12.9762 75.5532 13.1022 75.798 13.3191C76.0428 13.536 76.2106 13.8229 76.2666 14.1448L79.8196 31.6312C79.8895 32.0091 79.8196 32.4009 79.6027 32.7228C79.3929 33.0447 79.0572 33.2686 78.6795 33.3526H78.3858C78.057 33.3456 77.7353 33.2266 77.4765 33.0167C77.2178 32.8068 77.0429 32.5129 76.966 32.191L76.987 32.205Z" fill="#2B50B0"/>
<path d="M92.7789 20.3169V34.6965C92.7579 36.04 92.2823 37.3415 91.436 38.3841C90.5897 39.4267 89.4147 40.1614 88.1068 40.4623C86.7989 40.7632 85.4211 40.6162 84.2041 40.0495C82.9871 39.4757 81.994 38.517 81.3855 37.3135C81.3016 37.1455 81.2526 36.9566 81.2456 36.7677C81.2316 36.5788 81.2596 36.3898 81.3225 36.2079C81.3855 36.026 81.4834 35.865 81.6093 35.7251C81.7352 35.5851 81.8891 35.4662 82.0569 35.3822C82.3996 35.2213 82.7913 35.2003 83.148 35.3262C83.5047 35.4522 83.7915 35.7181 83.9593 36.054C84.2251 36.5788 84.6238 37.0196 85.1273 37.3275C85.6239 37.6354 86.1974 37.8033 86.7849 37.8033C87.1976 37.8033 87.6032 37.7263 87.9879 37.5724C88.3726 37.4184 88.7153 37.1875 89.009 36.9006C89.3028 36.6137 89.5336 36.2639 89.6945 35.886C89.8553 35.5082 89.9393 35.1023 89.9393 34.6895V32.5903C89.051 33.1151 88.0439 33.395 87.0157 33.4089C85.9876 33.4229 84.9735 33.157 84.0712 32.6532C83.176 32.1494 82.4276 31.4147 81.8961 30.526C81.3715 29.6374 81.0847 28.6297 81.0777 27.6011V20.3169C81.0638 20.1209 81.0917 19.925 81.1547 19.7361C81.2176 19.5471 81.3225 19.3792 81.4554 19.2323C81.5883 19.0853 81.7492 18.9734 81.931 18.8964C82.1129 18.8194 82.3087 18.7774 82.5045 18.7774C82.7004 18.7774 82.8962 18.8194 83.0781 18.8964C83.2599 18.9734 83.4208 19.0923 83.5537 19.2323C83.6865 19.3792 83.7915 19.5471 83.8544 19.7361C83.9174 19.925 83.9453 20.1209 83.9313 20.3169V27.5451C83.9313 28.3428 84.2461 29.1056 84.8126 29.6723C85.3721 30.2391 86.1415 30.554 86.9388 30.554C87.7361 30.554 88.4985 30.2391 89.065 29.6723C89.6315 29.1056 89.9463 28.3428 89.9463 27.5451V20.3169C89.9742 19.953 90.1351 19.6101 90.4079 19.3652C90.6736 19.1133 91.0303 18.9804 91.394 18.9804C91.7577 18.9804 92.1144 19.1203 92.3802 19.3652C92.646 19.6171 92.8138 19.953 92.8418 20.3169H92.8068H92.7789Z" fill="#2B50B0"/>
<path d="M108.655 27.5522C108.564 29.0636 107.92 30.4841 106.85 31.5477C106.235 32.1285 105.514 32.5833 104.724 32.8842C103.934 33.1851 103.087 33.325 102.248 33.297C102.192 33.311 102.136 33.311 102.08 33.297C100.381 33.318 98.7159 32.8212 97.3031 31.8696C96.5268 31.3168 95.8763 30.596 95.4077 29.7704C95.2538 29.5254 95.1769 29.2455 95.1699 28.9587C95.1699 28.5738 95.3238 28.2029 95.5966 27.93C95.8693 27.6571 96.24 27.5032 96.6247 27.5032C96.9114 27.5032 97.1912 27.5872 97.422 27.7481C97.6528 27.909 97.8347 28.14 97.9326 28.4059C98.2263 28.8467 98.59 29.2316 99.0167 29.5464C99.9469 30.1342 101.031 30.4351 102.136 30.4141C105.605 30.4701 105.78 27.5872 105.78 27.5592C105.738 27.1603 105.619 26.7825 105.423 26.4326C105.227 26.0827 104.962 25.7818 104.64 25.5509C103.752 24.9911 102.724 24.6903 101.667 24.6833C100.038 24.4733 98.2543 24.2704 96.7856 22.752C96.0931 22.0592 95.6105 21.1916 95.3727 20.2399C95.1419 19.2883 95.1769 18.2947 95.4707 17.364C95.7784 16.3354 96.3659 15.4187 97.1632 14.698C97.9606 13.9773 98.9397 13.4945 99.9888 13.2915C100.562 13.1516 101.15 13.0956 101.737 13.1096C103.542 13.0746 105.311 13.6484 106.752 14.74C107.494 15.2998 108.095 16.0275 108.501 16.8672C108.62 17.0701 108.675 17.308 108.669 17.5459C108.669 17.8748 108.55 18.1967 108.34 18.4556C108.13 18.7145 107.836 18.8894 107.514 18.9524C107.193 19.0154 106.85 18.9664 106.556 18.8125C106.263 18.6585 106.032 18.4066 105.906 18.0987C105.731 17.6859 105.451 17.322 105.095 17.0491C104.122 16.3424 102.94 15.9715 101.744 15.9995C101.374 15.9645 100.996 15.9995 100.639 16.0905C100.094 16.2024 99.5832 16.4543 99.1705 16.8322C98.7579 17.2031 98.4501 17.6859 98.2823 18.2177C98.1424 18.6515 98.1284 19.1203 98.2403 19.5612C98.3522 20.002 98.59 20.4079 98.9187 20.7227C99.6531 21.4575 100.548 21.6254 102.101 21.8073C103.675 21.8633 105.206 22.3671 106.5 23.2628C107.151 23.7806 107.682 24.4314 108.053 25.1731C108.424 25.9148 108.634 26.7265 108.662 27.5592L108.655 27.5522Z" fill="#2B50B0"/>
<path d="M125.211 26.2079V31.9037C125.211 32.0997 125.183 32.2886 125.113 32.4705C125.043 32.6525 124.938 32.8134 124.798 32.9533C124.665 33.0933 124.498 33.1983 124.316 33.2682C124.134 33.3382 123.945 33.3732 123.749 33.3662C123.378 33.3312 123.036 33.1703 122.777 32.8974C122.518 32.6315 122.371 32.2746 122.35 31.9037C121.14 32.9044 119.609 33.4222 118.035 33.3592C117.077 33.3872 116.119 33.2262 115.223 32.8764C114.328 32.5265 113.517 32.0017 112.824 31.337C112.139 30.6652 111.593 29.8675 111.216 28.9788C110.845 28.0972 110.656 27.1455 110.656 26.1869C110.656 25.2142 110.838 24.2556 111.202 23.3599C111.572 22.4643 112.111 21.6456 112.796 20.9598C113.482 20.2741 114.3 19.7283 115.195 19.3644C116.091 18.9936 117.056 18.8116 118.021 18.8186C118.979 18.8186 119.93 19.0076 120.819 19.3784C121.707 19.7493 122.504 20.3021 123.176 20.9878C123.847 21.6806 124.365 22.4923 124.714 23.3949C125.057 24.2906 125.225 25.2492 125.19 26.2079H125.211ZM122.357 26.2079C122.371 25.6271 122.273 25.0533 122.064 24.5075C121.854 23.9687 121.539 23.4719 121.14 23.0521C120.742 22.6322 120.259 22.2963 119.728 22.0584C119.196 21.8275 118.623 21.6946 118.042 21.6876C116.853 21.7016 115.713 22.1844 114.867 23.0311C114.02 23.8777 113.545 25.0113 113.524 26.2079C113.538 26.7887 113.664 27.3624 113.895 27.8942C114.125 28.426 114.461 28.9089 114.881 29.3077C115.3 29.7066 115.797 30.0214 116.335 30.2314C116.874 30.4413 117.454 30.5393 118.035 30.5253C118.602 30.5393 119.168 30.4343 119.7 30.2174C120.231 30.0075 120.707 29.6856 121.112 29.2867C121.518 28.8809 121.833 28.405 122.043 27.8732C122.252 27.3414 122.357 26.7817 122.35 26.2079H122.357Z" fill="#2B50B0"/>
<path d="M135.731 20.232C135.731 20.6169 135.577 20.9877 135.304 21.2606C135.031 21.5335 134.66 21.6875 134.276 21.6875C133.695 21.6875 133.115 21.7994 132.576 22.0233C132.038 22.2472 131.548 22.5761 131.142 22.989C130.73 23.4018 130.408 23.8916 130.184 24.4304C129.96 24.9692 129.848 25.543 129.848 26.1308V31.9876C129.862 32.1835 129.834 32.3864 129.772 32.5754C129.709 32.7643 129.604 32.9392 129.464 33.0792C129.331 33.2261 129.163 33.3451 128.981 33.4221C128.799 33.499 128.604 33.541 128.401 33.541C128.198 33.541 128.002 33.499 127.82 33.4221C127.638 33.3451 127.47 33.2261 127.338 33.0792C127.205 32.9322 127.1 32.7573 127.03 32.5754C126.967 32.3864 126.939 32.1905 126.953 31.9876V26.1308C126.953 24.1855 127.722 22.3242 129.1 20.9527C130.471 19.5812 132.338 18.8045 134.276 18.8045C134.465 18.8045 134.653 18.8395 134.828 18.9095C135.003 18.9795 135.164 19.0844 135.297 19.2174C135.43 19.3503 135.542 19.5113 135.612 19.6862C135.682 19.8611 135.724 20.0501 135.724 20.239L135.731 20.232Z" fill="#2B50B0"/>
<path d="M156.685 24.7812C156.699 24.8302 156.699 24.8792 156.685 24.9281V32.0095C156.685 32.3943 156.525 32.7652 156.252 33.0381C155.979 33.311 155.608 33.4649 155.217 33.4649C155.028 33.4649 154.839 33.423 154.664 33.346C154.489 33.269 154.335 33.1641 154.203 33.0311C154.07 32.8982 153.965 32.7372 153.895 32.5623C153.825 32.3873 153.79 32.1984 153.79 32.0095V24.6832C153.748 23.9205 153.419 23.1998 152.867 22.675C152.314 22.1502 151.58 21.8563 150.817 21.8563C150.055 21.8563 149.321 22.1502 148.768 22.675C148.216 23.1998 147.887 23.9205 147.845 24.6832V32.0095C147.845 32.1984 147.817 32.3873 147.747 32.5623C147.677 32.7372 147.572 32.8982 147.439 33.0311C147.306 33.1641 147.146 33.276 146.978 33.346C146.803 33.423 146.614 33.4579 146.425 33.4579C146.04 33.4579 145.67 33.304 145.397 33.0311C145.124 32.7582 144.97 32.3873 144.97 32.0025V24.6762C144.928 23.9205 144.6 23.2068 144.054 22.682C143.509 22.1572 142.774 21.8703 142.012 21.8703C141.25 21.8703 140.522 22.1642 139.97 22.682C139.417 23.1998 139.088 23.9205 139.053 24.6762V32.0025C139.067 32.1984 139.039 32.4013 138.976 32.5903C138.913 32.7792 138.809 32.9541 138.669 33.0941C138.536 33.241 138.368 33.36 138.186 33.4369C138.004 33.5139 137.808 33.5559 137.606 33.5559C137.403 33.5559 137.207 33.5139 137.025 33.4369C136.843 33.36 136.675 33.241 136.543 33.0941C136.41 32.9471 136.305 32.7722 136.235 32.5903C136.172 32.4013 136.144 32.2054 136.158 32.0025V24.6762C136.158 23.1228 136.787 21.6394 137.885 20.5478C138.983 19.4562 140.473 18.8404 142.019 18.8404C142.851 18.8404 143.683 19.0154 144.439 19.3652C145.201 19.7151 145.873 20.2189 146.418 20.8557C146.964 20.2189 147.635 19.7151 148.397 19.3652C149.16 19.0154 149.985 18.8404 150.817 18.8474C152.37 18.8474 153.853 19.4632 154.951 20.5548C156.049 21.6464 156.671 23.1368 156.678 24.6832C156.713 24.7252 156.713 24.7462 156.678 24.7812H156.685Z" fill="#2B50B0"/>
<path d="M173.002 26.2079V31.9037C173.002 32.0997 172.974 32.2886 172.904 32.4705C172.834 32.6525 172.729 32.8134 172.589 32.9533C172.449 33.0933 172.289 33.1983 172.107 33.2682C171.925 33.3382 171.736 33.3732 171.54 33.3662C171.17 33.3312 170.827 33.1703 170.568 32.8974C170.309 32.6315 170.162 32.2746 170.141 31.9037C168.931 32.9044 167.4 33.4222 165.826 33.3592C164.868 33.3872 163.91 33.2262 163.014 32.8764C162.119 32.5265 161.301 32.0017 160.615 31.337C159.93 30.6652 159.384 29.8675 159.007 28.9788C158.636 28.0972 158.447 27.1455 158.447 26.1869C158.447 25.2142 158.629 24.2556 158.993 23.3599C159.364 22.4643 159.902 21.6456 160.587 20.9598C161.273 20.2741 162.091 19.7283 162.986 19.3644C163.882 18.9936 164.847 18.8116 165.819 18.8186C166.777 18.8186 167.728 19.0076 168.617 19.3784C169.505 19.7493 170.302 20.3021 170.974 20.9878C171.645 21.6806 172.163 22.4923 172.512 23.3949C172.855 24.2906 173.023 25.2492 172.988 26.2079H173.002ZM170.148 26.2079C170.162 25.6271 170.064 25.0533 169.855 24.5075C169.645 23.9687 169.33 23.4719 168.931 23.0521C168.533 22.6322 168.05 22.2963 167.519 22.0584C166.987 21.8275 166.414 21.6946 165.833 21.6876C164.644 21.7016 163.504 22.1844 162.658 23.0311C161.811 23.8777 161.336 25.0113 161.315 26.2079C161.329 26.7887 161.455 27.3624 161.686 27.8942C161.916 28.426 162.259 28.9089 162.672 29.3077C163.091 29.7066 163.588 30.0214 164.126 30.2314C164.665 30.4413 165.246 30.5393 165.826 30.5253C166.393 30.5393 166.959 30.4343 167.491 30.2174C168.022 30.0075 168.498 29.6856 168.903 29.2867C169.309 28.8809 169.624 28.405 169.834 27.8732C170.043 27.3414 170.148 26.7817 170.141 26.2079H170.148Z" fill="#2B50B0"/>
</svg>
